<svg width="21" height="21" viewBox="0 0 21 21" fill="none" xmlns="http://www.w3.org/2000/svg">
<g clip-path="url(#clip0_3632_4540)">
<path d="M18.7642 7.0421C19.1728 6.55647 19.4197 5.93041 19.4197 5.24754C19.4197 3.70826 18.1674 2.45597 16.6281 2.45597C15.0889 2.45597 13.8365 3.70826 13.8365 5.24754C13.8365 5.26382 13.8375 5.2799 13.8378 5.2961C13.5201 5.10415 13.1488 4.99349 12.7522 4.99349H12.2111C12.8668 4.48223 13.2898 3.68558 13.2898 2.79156C13.2899 1.25229 12.0376 0 10.4983 0C8.95904 0 7.70675 1.25229 7.70675 2.79156C7.70675 3.68558 8.12971 4.48223 8.78547 4.99349H8.2443C7.84916 4.99349 7.47912 5.10341 7.16223 5.29413C7.16248 5.27855 7.16342 5.26317 7.16342 5.24754C7.16342 3.70826 5.91113 2.45597 4.37186 2.45597C2.83258 2.45597 1.58033 3.70826 1.58033 5.2475C1.58033 5.93037 1.82716 6.55643 2.23584 7.04205C1.1769 7.08344 0.328125 7.95112 0.328125 9.01236V13.4906C0.328125 14.2506 0.76367 14.9111 1.3997 15.2403L1.96539 20.4512C1.99931 20.7634 2.26296 21 2.57705 21H6.1667C6.4808 21 6.74444 20.7634 6.77832 20.4512L7.34414 15.2394C7.39622 15.2125 7.44708 15.1834 7.49651 15.152L8.09205 20.4534C8.12704 20.7647 8.39024 21 8.70343 21H12.2931C12.6064 21 12.8696 20.7647 12.9045 20.4533L13.4996 15.1472C13.5502 15.1796 13.6022 15.2098 13.6556 15.2376L14.2216 20.4512C14.2555 20.7635 14.5192 21 14.8333 21H18.4229C18.737 21 19.0007 20.7635 19.0346 20.4512L19.6003 15.2404C20.2363 14.9112 20.6718 14.2507 20.6718 13.4907V9.01236C20.6719 7.95112 19.8231 7.0834 18.7642 7.0421ZM10.4983 1.23047C11.3591 1.23047 12.0594 1.93077 12.0594 2.79156C12.0594 3.65236 11.3591 4.35266 10.4983 4.35266C9.63752 4.35266 8.93722 3.65236 8.93722 2.79156C8.93722 1.93077 9.63752 1.23047 10.4983 1.23047ZM19.4414 9.01236V13.4906C19.4414 13.8997 19.1022 14.2324 18.6852 14.2324H14.571C14.3161 14.2324 14.0838 14.1039 13.9457 13.9052C14.5033 13.5204 14.8701 12.874 14.8701 12.1428V8.27051H18.6852C19.1022 8.27055 19.4414 8.60331 19.4414 9.01236ZM16.6281 3.6864C17.4889 3.6864 18.1892 4.3867 18.1892 5.2475C18.1892 6.10829 17.4889 6.80859 16.6281 6.80859C15.7673 6.80859 15.067 6.10829 15.067 5.2475C15.067 4.3867 15.7673 3.6864 16.6281 3.6864ZM10.9255 8.48539L10.4983 9.0389L10.0711 8.48539L10.4983 7.39356L10.9255 8.48539ZM7.35693 7.12827C7.35693 6.6296 7.75503 6.22396 8.24435 6.22396H9.63465L8.79843 8.36145C8.71972 8.56267 8.75228 8.79039 8.88431 8.96146L10.0113 10.4218C10.1278 10.5728 10.3077 10.6612 10.4984 10.6612C10.689 10.6612 10.8689 10.5728 10.9854 10.4218L12.1124 8.96146C12.2444 8.79043 12.277 8.56267 12.1983 8.36145L11.3621 6.22396H12.7524C13.2417 6.22396 13.6398 6.62964 13.6398 7.12827V12.1428C13.6398 12.6415 13.2417 13.0472 12.7524 13.0472H8.2443C7.75499 13.0472 7.35689 12.6415 7.35689 12.1428V7.12827H7.35693ZM4.37186 3.6864C5.23265 3.6864 5.93295 4.3867 5.93295 5.2475C5.93295 6.10829 5.23265 6.80859 4.37186 6.80859C3.51106 6.80859 2.8108 6.10829 2.8108 5.2475C2.8108 4.3867 3.5111 3.6864 4.37186 3.6864ZM1.55859 9.01236C1.55859 8.60331 1.89783 8.27055 2.31476 8.27055H6.12646V12.1428C6.12646 12.8752 6.49433 13.5224 7.05346 13.9071C6.9145 14.1069 6.68227 14.2325 6.42899 14.2325H2.31476C1.89783 14.2324 1.55859 13.8997 1.55859 13.4906V9.01236ZM3.12908 19.7695L2.66154 15.4629H6.08221L5.61463 19.7695H3.12908ZM11.7431 19.7695H9.25349L8.63654 14.2776H12.359L11.7431 19.7695ZM15.3854 19.7695L14.9178 15.4629H18.3385L17.8709 19.7695H15.3854Z" fill="#5C5B68"/>
</g>
<defs>
<clipPath id="clip0_3632_4540">
<rect width="21" height="21" fill="white"/>
</clipPath>
</defs>
</svg>
